# xmcd
#
# Track frame offsets: 
#        150
#        41061
#        81534
#        119934
#        153378
#        194816
#        235304
#        269184
#        306353
#
# Disc length: 4494 seconds
#
# Revision: 3
# Processed by: cddbd v1.5.2PL0 Copyright (c) Steve Scherf et al.
# Submitted via: ExactAudioCopy v1.3
#
DISCID=93118c09
DTITLE=Hiromi Uehara - ALIVE
DYEAR=2014
DGENRE=Jazz
TTITLE0=Alive
TTITLE1=Wanderer
TTITLE2=Dreamer
TTITLE3=Seeker
TTITLE4=Player
TTITLE5=Warrior
TTITLE6=Firefly
TTITLE7=Spirit
TTITLE8=Life Goes On
EXTD=YEAR: 2014
EXTT0=
EXTT1=
EXTT2=
EXTT3=
EXTT4=
EXTT5=
EXTT6=
EXTT7=
EXTT8=
PLAYORDER=
